<svg width="187" height="49" viewBox="0 0 187 49" fill="none" xmlns="http://www.w3.org/2000/svg">
<circle cx="24.405" cy="24.405" r="23.405" stroke="white" stroke-width="2"/>
<g clip-path="url(#clip0_66_38)">
<path d="M37.6801 17.6004C39.0391 16.6355 40.1823 15.431 41.1138 14.0442V14.0428C39.8704 14.5873 38.5476 14.9493 37.1663 15.1247C38.5866 14.2767 39.6713 12.9442 40.1809 11.3388C38.8567 12.1283 37.3947 12.6852 35.8366 12.9971C34.5793 11.6576 32.7872 10.8292 30.8323 10.8292C27.0394 10.8292 23.9859 13.9078 23.9859 17.6812C23.9859 18.2242 24.0318 18.7464 24.1446 19.2434C18.4497 18.965 13.4092 16.2359 10.0229 12.0768C9.43249 13.103 9.08439 14.2767 9.08439 15.5397C9.08439 17.9123 10.3055 20.0148 12.1282 21.2332C11.0268 21.2123 9.94768 20.892 9.03287 20.3894V20.4646C9.03287 23.7938 11.4069 26.5591 14.5217 27.1968C13.9634 27.35 13.3563 27.4224 12.7255 27.4224C12.2869 27.4224 11.8441 27.3973 11.4292 27.3055C12.3162 30.0178 14.8364 32.0132 17.8301 32.0786C15.4992 33.9013 12.5389 34.9999 9.33502 34.9999C8.77389 34.9999 8.23503 34.9748 7.69617 34.9066C10.7316 36.8629 14.3268 37.981 18.206 37.981C30.2962 37.981 38.1758 27.8944 37.6801 17.6004Z" fill="white"/>
</g>
<circle cx="93.2151" cy="24.405" r="23.3469" stroke="white" stroke-width="2.11618"/>
<path d="M98.5053 13.3799H101.519V8.13131C100.999 8.05979 99.2109 7.89886 97.1286 7.89886C92.7836 7.89886 89.8073 10.6318 89.8073 15.6548V20.2775H85.0126V26.145H89.8073V40.9087H95.6857V26.1464H100.286L101.017 20.2789H95.6844V16.2366C95.6857 14.5407 96.1424 13.3799 98.5053 13.3799Z" fill="white"/>
<circle cx="162.025" cy="24.405" r="23.405" stroke="white" stroke-width="2"/>
<g clip-path="url(#clip1_66_38)">
<path d="M178.018 36.9619V36.9607H178.025V26.3018C178.025 21.0873 176.902 17.0706 170.806 17.0706C167.876 17.0706 165.909 18.6787 165.106 20.2033H165.022V17.5574H159.242V36.9607H165.26V27.3529C165.26 24.8232 165.74 22.377 168.873 22.377C171.959 22.377 172.005 25.264 172.005 27.5151V36.9619H178.018Z" fill="white"/>
<path d="M149.441 17.5586H155.467V36.9619H149.441V17.5586Z" fill="white"/>
<path d="M152.452 7.89862C150.525 7.89862 148.962 9.46198 148.962 11.3886C148.962 13.3153 150.525 14.9113 152.452 14.9113C154.378 14.9113 155.942 13.3153 155.942 11.3886C155.941 9.46198 154.377 7.89862 152.452 7.89862V7.89862Z" fill="white"/>
</g>
<defs>
<clipPath id="clip0_66_38">
<rect width="33.4176" height="33.4176" fill="white" transform="translate(7.69617 7.69617)"/>
</clipPath>
<clipPath id="clip1_66_38">
<rect width="29.0632" height="29.0632" fill="white" transform="translate(148.962 7.89862)"/>
</clipPath>
</defs>
</svg>
